# xmcd
#
# Track frame offsets:
#	150
#	27633
#	38085
#	58517
#	74517
#	94399
#	114889
#
# Disc length: 2038 seconds
#
# Revision: 0
# Processed by: cddbd v1.5.2PL0 Copyright (c) Steve Scherf et al.
# Submitted via: EasyCDDAExtractor 16.0.6.1
#
DISCID=5d07f407
DTITLE=Space - Magic fly-LP, Didier Marouani and Space
DYEAR=1977
DGENRE=Ξένη space disco
TTITLE0=Άνευ ερμηνευτού - Fasten seat belt
TTITLE1=Άνευ ερμηνευτού - Ballad for space lovers
TTITLE2=Άνευ ερμηνευτού - Tango in space
TTITLE3=Άνευ ερμηνευτού - Flying nightmare
TTITLE4=Άνευ ερμηνευτού - Magic fly
TTITLE5=Άνευ ερμηνευτού - Velvet rape
TTITLE6=Space - Carry on, turn me on
EXTD=
EXTT0=
EXTT1=
EXTT2=
EXTT3=
EXTT4=
EXTT5=
EXTT6=
PLAYORDER=
